/* XPM */
static char *ascii_0x54[]={
"7 8 2 1",
". c None",
"# c #000000",
".#####.",
"...#...",
"...#...",
"...#...",
"...#...",
"...#...",
"...#...",
"......."};
