/* XPM */
static char *6416_30[]={
"7 8 2 1",
". c None",
"# c #000000",
"..###..",
".#...#.",
".#..##.",
".#.#.#.",
".##..#.",
".#...#.",
"..###..",
"......."};
