/* XPM */
static char *vid2k_30[]={
"8 10 2 1",
". c None",
"# c #000000",
"..###...",
".#...#..",
".#..##..",
".#.#.#..",
".##..#..",
".#...#..",
"..###...",
"........",
"........",
"........"};
