/* XPM */
static char *ascii_0x1a[]={
"8 10 2 1",
". c None",
"# c #000000",
"..#.....",
"..#.....",
"..#.....",
"########",
"########",
"..#.....",
"..#.....",
"..#.....",
"........",
"........"};
