/* XPM */
static char *ascii_0x26[]={
"8 10 2 1",
". c None",
"# c #000000",
"...#....",
"..#.#...",
"..#.#...",
"..##....",
".#.#.#..",
".#..#...",
"..##.#..",
"........",
"........",
"........"};
