/* XPM */
static char *ascii_0x0c[]={
"7 8 2 1",
". c None",
"# c #000000",
"..##...",
"..##...",
"..##...",
"..##...",
"..##...",
"..##...",
"..##...",
"..##..."};
