/* XPM */
static char *ascii_0x6a[]={
"7 8 2 1",
". c None",
"# c #000000",
"....#..",
".......",
"...##..",
"....#..",
"....#..",
"....#..",
".#..#..",
"..##..."};
