/* XPM */
static char *ascii_0x67[]={
"7 8 2 1",
". c None",
"# c #000000",
".......",
".......",
"..####.",
".#...#.",
".#...#.",
"..####.",
".....#.",
"...##.."};
