/* XPM */
static char *ascii_0x60[]={
"7 8 2 1",
". c None",
"# c #000000",
"..##...",
"..##...",
"..#....",
"...#...",
".......",
".......",
".......",
"......."};
