/* XPM */
static char *ascii_0x92[]={
"7 8 2 1",
"# c None",
". c #000000",
".......",
".......",
".......",
"####...",
"####...",
"..##...",
"..##...",
"..##..."};
