/* XPM */
static char *ascii_0x3e[]={
"8 10 2 1",
". c None",
"# c #000000",
"........",
".#......",
"..#.....",
"...#....",
"....#...",
"...#....",
"..#.....",
".#......",
"........",
"........"};
