/* XPM */
static char *ascii_0xa2[]={
"7 8 2 1",
"# c None",
". c #000000",
"..#.#..",
"..#.#..",
".......",
".......",
".......",
".......",
".......",
"......."};
