/* XPM */
static char *ascii_0x91[]={
"7 8 2 1",
"# c None",
". c #000000",
"..##...",
"..##...",
"..##...",
"..#####",
"..#####",
".......",
".......",
"......."};
